<?xml version="1.0" encoding="utf-8"?>
<!-- Generator: Adobe Illustrator 25.2.1, SVG Export Plug-In . SVG Version: 6.00 Build 0)  -->
<svg version="1.1" xmlns="http://www.w3.org/2000/svg" xmlns:xlink="http://www.w3.org/1999/xlink" x="0px" y="0px"
	 viewBox="0 0 383.24 316.52" style="enable-background:new 0 0 383.24 316.52;" xml:space="preserve">
<style type="text/css">
	.st0{display:none;}
	.st1{fill:#FFA400;}
	.st2{fill:#BC0100;stroke:#FFA400;stroke-width:0.9191;stroke-miterlimit:10;}
	.st3{fill:#BC0100;}
	.st4{fill:#FFFFFF;}
	.st5{fill:url(#SVGID_1_);}
	.st6{fill:url(#SVGID_2_);}
	.st7{fill:url(#SVGID_3_);}
	.st8{fill:url(#SVGID_4_);}
	.st9{fill:#FFFFFF;stroke:#FFFFFF;stroke-width:0.6097;stroke-miterlimit:10;}
	.st10{display:inline;}
	.st11{fill:none;stroke:#FFFFFF;stroke-miterlimit:10;}
	.st12{fill:#FFAE00;}
	.st13{clip-path:url(#SVGID_14_);}
	.st14{clip-path:url(#SVGID_16_);fill:#010200;}
	.st15{clip-path:url(#SVGID_14_);fill:#DDD2BF;}
	.st16{clip-path:url(#SVGID_18_);fill:#3A83C0;}
	.st17{clip-path:url(#SVGID_18_);fill:#010300;}
	.st18{clip-path:url(#SVGID_18_);fill:#3C5BA1;}
	.st19{clip-path:url(#SVGID_18_);fill:#003979;}
	.st20{clip-path:url(#SVGID_18_);fill:#9D9081;}
	.st21{clip-path:url(#SVGID_20_);fill:#94BB44;}
	.st22{clip-path:url(#SVGID_20_);fill:#010300;}
	.st23{clip-path:url(#SVGID_20_);fill:#76A220;}
	.st24{clip-path:url(#SVGID_20_);fill:#3F5612;}
	.st25{clip-path:url(#SVGID_20_);fill:#9D9081;}
	.st26{clip-path:url(#SVGID_22_);fill:#FDEC29;}
	.st27{clip-path:url(#SVGID_22_);fill:#010300;}
	.st28{clip-path:url(#SVGID_22_);fill:#D7C100;}
	.st29{clip-path:url(#SVGID_22_);fill:#998808;}
	.st30{clip-path:url(#SVGID_22_);fill:#9D9081;}
	.st31{clip-path:url(#SVGID_24_);fill:#ABA6A4;}
	.st32{clip-path:url(#SVGID_24_);fill:#010300;}
	.st33{clip-path:url(#SVGID_24_);fill:#898684;}
	.st34{clip-path:url(#SVGID_24_);fill:#565651;}
	.st35{clip-path:url(#SVGID_24_);fill:#9D9081;}
	.st36{clip-path:url(#SVGID_26_);fill:#2E2E26;}
	.st37{clip-path:url(#SVGID_26_);fill:#010300;}
	.st38{clip-path:url(#SVGID_26_);fill:#060702;}
	.st39{clip-path:url(#SVGID_26_);fill:#181810;}
	.st40{clip-path:url(#SVGID_26_);fill:#9D9081;}
	.st41{clip-path:url(#SVGID_28_);fill:#94BB44;}
	.st42{clip-path:url(#SVGID_28_);fill:#87AB37;}
	.st43{clip-path:url(#SVGID_28_);fill:#778F20;}
	.st44{clip-path:url(#SVGID_28_);fill:#ABA6A4;}
	.st45{clip-path:url(#SVGID_28_);fill:#807D7D;}
	.st46{clip-path:url(#SVGID_28_);fill:#FDEC29;}
	.st47{clip-path:url(#SVGID_28_);fill:#DBC200;}
	.st48{clip-path:url(#SVGID_28_);fill:#3A83C0;}
	.st49{clip-path:url(#SVGID_28_);fill:#086A8B;}
	.st50{clip-path:url(#SVGID_28_);fill:#2E2E26;}
	.st51{clip-path:url(#SVGID_28_);fill:#18180F;}
	.st52{clip-path:url(#SVGID_28_);fill:#010200;}
	.st53{clip-path:url(#SVGID_28_);fill:#2176A7;}
	.st54{clip-path:url(#SVGID_28_);fill:#F1DD1F;}
	.st55{clip-path:url(#SVGID_28_);fill:#999392;}
	.st56{clip-path:url(#SVGID_28_);fill:#E56111;}
	.st57{opacity:0.5;clip-path:url(#SVGID_28_);}
	.st58{clip-path:url(#SVGID_30_);}
	.st59{clip-path:url(#SVGID_34_);fill:#E56111;}
	.st60{opacity:0.5;clip-path:url(#SVGID_34_);}
	.st61{clip-path:url(#SVGID_36_);}
	.st62{opacity:0.5;clip-path:url(#SVGID_40_);}
	.st63{clip-path:url(#SVGID_42_);}
	.st64{clip-path:url(#SVGID_40_);fill:#FFFFFF;}
	.st65{clip-path:url(#SVGID_46_);}
	.st66{opacity:0.5;clip-path:url(#SVGID_50_);}
	.st67{clip-path:url(#SVGID_52_);}
	.st68{clip-path:url(#SVGID_56_);fill:#E56111;}
	.st69{opacity:0.5;clip-path:url(#SVGID_56_);}
	.st70{clip-path:url(#SVGID_58_);}
	.st71{clip-path:url(#SVGID_62_);fill:#E56111;}
	.st72{clip-path:url(#SVGID_64_);fill:#367D40;}
	.st73{clip-path:url(#SVGID_64_);fill:#010200;}
	.st74{clip-path:url(#SVGID_66_);fill:#E56111;}
	.st75{clip-path:url(#SVGID_68_);fill:#010200;}
	.st76{clip-path:url(#SVGID_68_);fill:none;stroke:#010200;stroke-width:0.1065;stroke-miterlimit:10;}
	.st77{clip-path:url(#SVGID_68_);fill:#3E992D;}
	.st78{clip-path:url(#SVGID_68_);fill:none;stroke:#010200;stroke-width:0.0824;stroke-miterlimit:10;}
	.st79{clip-path:url(#SVGID_68_);fill:#1E120D;}
	.st80{clip-path:url(#SVGID_68_);fill:none;stroke:#DDD2BF;stroke-width:1.2684;stroke-miterlimit:10;}
	.st81{clip-path:url(#SVGID_68_);fill:#DDD2BF;}
	.st82{clip-path:url(#SVGID_68_);fill:#E56111;}
	.st83{clip-path:url(#SVGID_68_);fill:#315F1B;}
	.st84{clip-path:url(#SVGID_68_);fill:#62BDD5;}
	.st85{clip-path:url(#SVGID_68_);fill:none;stroke:#E56111;stroke-width:0.1446;stroke-miterlimit:10;}
	.st86{fill:#DDD2BF;}
	.st87{fill:none;stroke:#FFFFFF;stroke-width:5;stroke-miterlimit:10;}
	.st88{fill:none;}
</style>
<g id="Capa_1">
	<g>
		<g>
			<path class="st1" d="M244.57,92.85c-8.27-10.24,8.96-28.66,8.96-28.66c-25.96-2.36-34.13,44.59-34.13,44.59
				c-7.17-7.17-0.89-30.42,4-38.44c9.65-15.81,7.16-36.34-6.01-49.36c-5.73-5.66-10.89-8.2-10.89-8.2
				c4.75,4.75,6.07,11.41,5.76,18.11c-0.6,12.84-7.21,24.57-17.19,32.65c-26.47,21.42-23.96,48.68-23.96,48.68
				c-16.52-16.52,4.36-42.47,4.36-42.47c6.05-9.44-2.68-21.24-2.68-21.24c2.36,9.1-5.73,12.81-5.73,12.81
				c-45.84,21.24-26.78,68.43-26.78,68.43c-13.87,0-13-21.91-13-21.91c0-14.16-14.83-16.85-14.83-16.85
				c9.1,12.14-1.35,32.7-1.35,32.7c-0.76,1.51-1.34,3.29-1.78,5.21c-4.23,18.72,8.03,34.9,25.09,43.7
				c20.68,10.67,54.8,11.37,54.8,11.37c22.68,1.92,35.4-2.72,47.67-6.05c15.38-4.17,27.92-13.3,33.29-28.31
				c0.05-0.15,0.11-0.3,0.16-0.45c4.23-12.07,4.3-24.94-4.71-33.96c-5.28-5.28-3.12-15.84-3.12-15.84
				c-13.9,13.3-13.91,24.99-10.43,30.07c1.07,1.56,2.24,4.44,2.08,6.33c-0.64,7.82-6.57,7.06-6.57,7.06c-4.6,0-6.61-4.36-6.37-7.85
				c0.14-1.98,0.68-3.9,1.47-5.72C244.96,124.04,253.14,103.47,244.57,92.85z"/>
			<g>
				<g>
					<path class="st2" d="M239.05,168.55c-16.84,16.84-39.6,16.94-64.54,9.6c-9.92-2.92-17.85-9.67-19.11-19.49
						c-7.86-0.4-15.46,0.4-15.46,0.4v-0.01c2.79-6.48-3.36-10.61-3.36-10.61c8.65-20.41,19.79-30.11,29.9-34.45
						c1.07-0.46,2.15-0.85,3.24-1.16c5.36-6.58,12.55-10.98,22.21-10.98c15.54,0,29.15,8.85,38.62,19.71
						c2.03-3.42,4.3-6.28,6.53-7.11c0,0,0.94,8.29,0.31,17.17C245.37,145.07,244.43,163.16,239.05,168.55z"/>
					<path class="st3" d="M139.94,159.05c-4.6-0.97-4.07,2.43-4.07,2.43c0.99,3.63-0.5,5.46-2.24,6.36
						c-2.04,1.07-4.51,0.88-6.52-0.24c-3.01-1.67-4.86-4.3-5.95-6.5c-1.3-2.63-1.45-5.75-0.13-8.38c2.12-4.22,5.78-2.88,7.87-1.61
						c2.01,1.22,4.6,0.9,6.24-0.8c0.92-0.95,1.43-1.88,1.43-1.88S142.73,152.56,139.94,159.05z"/>
				</g>
				<g>
					<g>
						<path class="st1" d="M169.71,112.82c1.8-2.34,3.89-4.48,6.29-6.25c2.4-1.76,5.1-3.13,7.97-3.99c2.86-0.89,5.88-1.22,8.86-1.13
							c2.98,0.01,5.96,0.45,8.86,1.1c2.91,0.67,5.72,1.69,8.43,2.93c2.71,1.24,5.33,2.67,7.75,4.38c2.44,1.69,4.78,3.52,6.94,5.55
							c2.15,2.04,4.19,4.19,6.05,6.49c-4.02-4.33-8.44-8.27-13.38-11.45c-2.46-1.6-5.03-3.03-7.71-4.21
							c-2.67-1.19-5.45-2.16-8.3-2.8c-2.84-0.67-5.74-1.13-8.67-1.16c-1.46-0.08-2.91,0.02-4.36,0.15c-1.44,0.2-2.88,0.42-4.28,0.83
							C178.51,104.77,173.56,108.35,169.71,112.82z"/>
					</g>
					<g>
						<path class="st1" d="M237.39,131.61c1.44,2.45,2.67,5.04,3.62,7.73c0.91,2.7,1.6,5.48,2.04,8.31c0.39,2.83,0.54,5.7,0.39,8.56
							c-0.16,2.86-0.59,5.73-1.63,8.45c-0.31,0.66-0.51,1.36-0.92,1.98l-0.55,0.95l-0.7,0.87c-0.23,0.3-0.49,0.55-0.76,0.79
							l-0.79,0.73l-1.58,1.46c-1.07,0.95-2.25,1.78-3.37,2.67c-1.15,0.85-2.4,1.57-3.6,2.36c-4.93,2.95-10.44,4.89-16.09,5.88
							c-5.66,0.98-11.44,1.06-17.13,0.56c-5.7-0.52-11.34-1.55-16.85-3.03c-2.74-0.78-5.52-1.46-8.18-2.54
							c-2.66-1.07-5.2-2.47-7.45-4.24c-2.24-1.78-4.25-3.9-5.69-6.38c-1.45-2.46-2.39-5.22-2.73-8.05c0.41,2.82,1.42,5.53,2.92,7.93
							c1.49,2.41,3.52,4.44,5.77,6.14c2.25,1.71,4.76,3.05,7.39,4.06c2.63,1.02,5.41,1.66,8.15,2.4c5.51,1.36,11.1,2.41,16.74,2.89
							c5.64,0.47,11.34,0.36,16.9-0.63c5.56-0.95,10.97-2.83,15.83-5.7c1.18-0.77,2.41-1.47,3.55-2.3c1.11-0.87,2.27-1.68,3.33-2.61
							c1.02-0.96,2.14-1.88,3.07-2.89l0.66-0.78l0.53-0.89c0.39-0.57,0.6-1.25,0.91-1.87c1.04-2.6,1.51-5.42,1.71-8.23
							c0.19-2.82,0.08-5.66-0.25-8.47c-0.35-2.81-0.97-5.59-1.81-8.3C239.92,136.71,238.77,134.1,237.39,131.61z"/>
					</g>
					<g>
						<path class="st1" d="M214.85,165.16c-1.55-2.4-2.69-5.07-3.36-7.86c-0.67-2.79-0.78-5.77-0.01-8.58
							c0.77-2.8,2.4-5.37,4.54-7.33c2.12-2,4.65-3.5,7.29-4.66l-0.22,0.24c1.52-4.25,3.25-8.4,5.29-12.43
							c1.03-2.01,2.15-3.98,3.47-5.83c0.66-0.92,1.38-1.82,2.2-2.64c0.82-0.81,1.74-1.57,2.88-2.02l0.52-0.2l0.05,0.55
							c0.33,3.36,0.48,6.71,0.49,10.08c0.01,3.36-0.17,6.73-0.56,10.07c-0.42,3.33-1.03,6.68-2.26,9.83
							c-0.61,1.57-1.35,3.1-2.37,4.45c-1.01,1.35-2.29,2.52-3.83,3.2c1.51-0.74,2.74-1.94,3.69-3.31c0.96-1.37,1.64-2.9,2.18-4.47
							c1.08-3.15,1.65-6.46,1.99-9.77c0.33-3.32,0.41-6.66,0.38-10c-0.04-3.33-0.21-6.68-0.55-9.99l0.57,0.35
							c-0.95,0.38-1.8,1.07-2.56,1.84c-0.76,0.78-1.45,1.64-2.09,2.54c-1.27,1.81-2.37,3.75-3.4,5.72
							c-2.04,3.96-3.8,8.09-5.32,12.28l-0.06,0.17l-0.16,0.07c-2.59,1.12-5.04,2.57-7.13,4.44c-2.1,1.85-3.7,4.27-4.5,6.96
							c-0.78,2.7-0.77,5.6-0.22,8.37C212.35,160.01,213.39,162.71,214.85,165.16z"/>
					</g>
					<g>
						<path class="st1" d="M239.05,151.62c-0.27,2.25-0.97,4.44-1.89,6.52c-0.93,2.09-2.19,4.04-3.76,5.73
							c-1.55,1.71-3.54,3.02-5.68,3.87c-2.13,0.94-4.48,1.06-6.72,1c0.56-0.09,1.12-0.17,1.67-0.24l0.83-0.11
							c0.28-0.04,0.54-0.15,0.81-0.21l1.61-0.43c0.52-0.2,1.02-0.44,1.52-0.65c1.97-0.96,3.82-2.2,5.29-3.85
							c1.5-1.6,2.74-3.46,3.79-5.41c0.53-0.98,1-1.99,1.4-3.04C238.37,153.77,238.73,152.7,239.05,151.62z"/>
					</g>
					<g>
						<path class="st1" d="M193.53,165.16c4.23-3.55,7.69-8.02,10.03-13c1.21-2.48,1.94-5.16,2.43-7.85l0.26-2.04
							c0.1-0.68,0.05-1.37,0.08-2.05c0.09-1.37-0.1-2.73-0.23-4.1c-0.63-5.46-3.17-10.58-6.77-14.65c-0.41-0.55-0.97-0.96-1.44-1.45
							c-0.51-0.45-0.95-0.98-1.52-1.37c-1.09-0.82-2.14-1.69-3.35-2.34c-2.29-1.49-4.88-2.45-7.47-3.25
							c-5.27-1.36-10.93-1.37-16.12,0.3c-5.19,1.67-9.94,4.64-14.07,8.21c-2.05,1.82-3.99,3.76-5.77,5.85
							c-1.75,2.11-3.44,4.28-4.92,6.6c-3.03,4.59-5.56,9.5-7.72,14.56l-0.15-0.5c0.88,0.63,1.6,1.36,2.26,2.18
							c0.65,0.82,1.18,1.75,1.53,2.74c0.37,0.99,0.52,2.07,0.44,3.13c-0.03,1.07-0.37,2.08-0.74,3.06l-0.4-0.54
							c4.78-0.42,9.56-0.57,14.35-0.38c2.39,0.1,4.78,0.29,7.16,0.66c2.34,0.37,4.71,0.58,7.08,0.48c2.36-0.11,4.72-0.47,6.91-1.36
							c2.18-0.89,4.08-2.4,5.57-4.24c1.47-1.86,2.51-4.04,3.19-6.32c0.65-2.29,0.97-4.67,1.02-7.05c-0.01,2.38-0.28,4.78-0.9,7.09
							c-0.64,2.3-1.65,4.52-3.11,6.44c-1.47,1.9-3.39,3.48-5.62,4.44c-2.23,0.96-4.64,1.37-7.04,1.5c-2.4,0.12-4.81-0.06-7.18-0.41
							c-2.35-0.34-4.72-0.51-7.09-0.59c-4.75-0.14-9.52,0.06-14.24,0.52l-0.62,0.06l0.22-0.6c0.34-0.9,0.65-1.83,0.67-2.79
							c0.06-0.95-0.07-1.92-0.41-2.82c-0.32-0.9-0.81-1.75-1.41-2.51c-0.6-0.75-1.32-1.46-2.08-2.01l-0.28-0.2l0.13-0.3
							c2.16-5.11,4.7-10.07,7.74-14.72c3.03-4.66,6.61-8.99,10.82-12.66c4.23-3.62,9.06-6.63,14.41-8.34
							c5.36-1.7,11.18-1.67,16.59-0.26c5.38,1.53,10.38,4.52,14.09,8.72c3.66,4.21,6.19,9.48,6.78,15.05
							c0.11,1.39,0.3,2.78,0.19,4.17c-0.04,0.7,0.01,1.4-0.11,2.09l-0.29,2.07c-0.55,2.72-1.33,5.42-2.6,7.9
							C201.37,157.27,197.82,161.69,193.53,165.16z"/>
					</g>
					<g>
						<path class="st1" d="M136.57,148.43c-0.51,0.92-1.11,1.8-1.95,2.48c-0.84,0.67-1.89,1.07-2.98,1.13
							c-1.09,0.08-2.21-0.27-3.11-0.83c-0.89-0.49-1.86-0.88-2.84-0.98c-0.98-0.12-1.97,0.1-2.72,0.68
							c-0.77,0.57-1.32,1.42-1.73,2.33c-0.81,1.83-0.9,3.94-0.36,5.87c1.23,3.76,4.06,7.38,7.83,8.74c1.88,0.59,4.07,0.36,5.65-0.85
							c0.78-0.59,1.32-1.47,1.5-2.45c0.19-0.98,0.07-2.01-0.16-3.01l0-0.02l0,0c-0.04-0.52,0.03-1.03,0.27-1.49
							c0.23-0.46,0.65-0.81,1.11-0.99c0.46-0.19,0.96-0.22,1.44-0.2c0.48,0.03,0.96,0.12,1.42,0.23c-0.47-0.07-0.95-0.12-1.42-0.12
							c-0.47,0.03-0.95,0.07-1.36,0.28c-0.42,0.19-0.75,0.52-0.93,0.93c-0.18,0.4-0.22,0.88-0.16,1.31l0-0.02
							c0.3,1.02,0.49,2.11,0.31,3.2c-0.15,1.09-0.74,2.15-1.61,2.85c-1.72,1.44-4.18,1.78-6.28,1.13c-1.07-0.31-2.03-0.87-2.9-1.49
							c-0.88-0.63-1.68-1.36-2.4-2.17c-1.4-1.64-2.58-3.48-3.16-5.61c-0.56-2.11-0.44-4.43,0.48-6.43c0.47-0.98,1.08-1.95,2.03-2.62
							c0.93-0.67,2.16-0.89,3.25-0.71c1.1,0.16,2.11,0.61,3.03,1.16c0.86,0.57,1.82,0.89,2.83,0.89c1.01,0.01,2.02-0.31,2.86-0.9
							C135.31,150.13,136,149.3,136.57,148.43z"/>
					</g>
				</g>
			</g>
			<g>
				<g>
					<path class="st1" d="M204.46,16.06c1.68,5.35,2.99,10.94,2.62,16.66c-0.5,5.68-2.56,11.16-5.64,15.94
						c-1.55,2.39-3.39,4.57-5.38,6.59c-1.99,2.03-4.19,3.83-6.36,5.59c-2.17,1.78-4.31,3.6-6.26,5.6c-1.97,1.97-3.77,4.17-4.99,6.71
						c1.03-2.63,2.78-4.93,4.66-7.02c1.91-2.08,4.01-3.98,6.13-5.83c2.12-1.86,4.3-3.61,6.22-5.63c1.93-2.01,3.71-4.17,5.2-6.51
						c1.52-2.32,2.8-4.81,3.77-7.41c0.98-2.6,1.58-5.34,1.93-8.09c0.29-2.76,0.1-5.57-0.28-8.34
						C205.74,21.54,205.13,18.79,204.46,16.06z"/>
				</g>
				<g>
					<path class="st1" d="M255.1,67.57c-1.54,2.8-3.69,5.16-5.09,8c-0.75,1.39-1.52,2.76-2.12,4.2c-0.6,1.45-1.08,2.91-1.08,4.43
						c-0.06,1.52,0.22,3.05,0.72,4.51c0.26,0.73,0.55,1.44,0.93,2.1c0.38,0.67,0.81,1.34,1.19,2.06c0.78,1.44,1.19,3.05,1.37,4.64
						c0.15,1.6,0.14,3.19,0.06,4.77c-0.12-1.58-0.2-3.17-0.5-4.71c-0.27-1.54-0.73-3.04-1.54-4.35c-0.4-0.66-0.86-1.31-1.26-2.01
						c-0.42-0.7-0.75-1.46-1.03-2.22c-0.56-1.53-0.89-3.16-0.85-4.81c0.03-0.83,0.16-1.65,0.39-2.45c0.23-0.79,0.52-1.54,0.85-2.28
						c0.66-1.47,1.43-2.88,2.28-4.22c0.83-1.34,1.72-2.7,2.74-3.92C253.16,70.06,254.18,68.86,255.1,67.57z"/>
				</g>
				<g>
					<path class="st1" d="M266.75,97.86c-0.83,2.71-0.94,5.6-0.35,8.33c0.56,2.73,1.79,5.33,3.61,7.41
						c0.89,1.05,1.91,2.17,2.61,3.42c0.74,1.23,1.37,2.52,1.95,3.83c0.57,1.31,1.08,2.65,1.5,4.02c0.21,0.69,0.38,1.4,0.52,2.09
						c0.14,0.7,0.32,1.39,0.42,2.1c0.95,5.62,0.89,11.46-0.49,17.01c-0.69,2.77-1.69,5.46-2.98,8c-1.31,2.52-2.88,4.91-4.72,7.07
						c3.36-4.55,5.81-9.75,7-15.23c1.21-5.48,1.27-11.18,0.27-16.7c-0.09-0.7-0.26-1.38-0.39-2.07c-0.13-0.69-0.29-1.36-0.48-2.03
						c-0.39-1.34-0.88-2.65-1.43-3.94c-0.55-1.29-1.16-2.55-1.86-3.75c-0.69-1.22-1.57-2.24-2.46-3.37
						C265.79,109.59,264.71,103.18,266.75,97.86z"/>
				</g>
				<g>
					<path class="st1" d="M108.49,153.5c-2.52-4.43-4.24-9.35-4.96-14.44c-0.73-5.08-0.35-10.4,1.52-15.24
						c0.94-2.42,2.21-4.63,3.23-6.94c1.06-2.29,1.73-4.71,2.09-7.2c0.66-4.98-0.19-10.18-2.47-14.73c2.63,4.38,3.71,9.68,3.17,14.82
						c-0.25,2.57-0.98,5.1-2.02,7.45c-1.01,2.36-2.26,4.6-3.14,6.94c-1.87,4.66-2.24,9.82-1.68,14.82c0.28,2.51,0.81,4.99,1.54,7.42
						C106.46,148.83,107.4,151.2,108.49,153.5z"/>
				</g>
				<g>
					<path class="st1" d="M169.41,47.51c0.11,2.25,0,4.56-0.76,6.75c-0.39,1.08-0.97,2.11-1.74,3c-0.76,0.88-1.73,1.6-2.74,2.14
						c-2.02,1.11-4.15,1.89-6.21,2.79c-1.04,0.45-2.02,0.9-2.96,1.51c-0.96,0.57-1.89,1.19-2.81,1.83c-3.67,2.55-6.9,5.72-9.58,9.31
						c-2.71,3.58-4.87,7.56-6.79,11.65c0.78-2.12,1.7-4.2,2.71-6.23c1.04-2.02,2.2-3.97,3.51-5.84c2.61-3.74,5.92-6.98,9.62-9.65
						c0.94-0.64,1.9-1.27,2.89-1.84c0.96-0.61,2.05-1.09,3.09-1.53c2.1-0.87,4.21-1.66,6.21-2.64c1-0.49,1.89-1.1,2.64-1.91
						c0.74-0.8,1.32-1.75,1.75-2.77C169.11,52.04,169.31,49.76,169.41,47.51z"/>
				</g>
			</g>
		</g>
		<g>
			<path class="st1" d="M27.57,202.29h8.77c3.73,0,6.38,0.51,7.95,1.54c2.01,1.29,3.01,3.08,3.01,5.37c0,1.39-0.38,2.61-1.15,3.63
				c-0.77,1.03-1.84,1.77-3.22,2.23c-1.38,0.46-3.58,0.68-6.59,0.68h-2.4v9.46l2.38,2.15h-9.09l2.72-2.29v-7.84
				c-0.16-0.01-0.27-0.02-0.33-0.02c-0.94,0-1.84,0.2-2.7,0.61l-0.18-0.35c0.87-0.5,1.65-0.74,2.35-0.74h0.7l0.16-0.02v-0.96
				c-0.3-0.04-0.5-0.06-0.61-0.06c-1.39,0-2.51,0.34-3.34,1.02l-0.2-0.29c0.79-1.46,2.07-2.19,3.83-2.19h0.31v-9.58L27.57,202.29z
				 M46.31,204.38c0.79,0.39,1.43,1.08,1.92,2.06c0.48,0.98,0.72,2.1,0.72,3.35c0,2.83-1.09,4.86-3.28,6.1
				c-1.65,0.94-4.48,1.41-8.48,1.41c-0.66,0-1.22-0.01-1.68-0.04v8.07l3.07,3.64h-9.79l-0.53-0.53h9.2l-2.5-2.89v-8.81
				c1.13,0.07,2.34,0.1,3.62,0.1c3.36,0,5.86-0.59,7.48-1.78c1.63-1.19,2.44-3,2.44-5.45c0-1.02-0.16-1.9-0.47-2.65
				C47.72,206.2,47.14,205.35,46.31,204.38z M33.94,204.3v9.79h0.25l0.51,0.02c0.05,0,0.14-0.01,0.25-0.02v-8.72h2.15
				c1.67,0,2.84,0.15,3.53,0.44c0.68,0.29,1.27,0.9,1.75,1.83c-0.48-0.66-1.08-1.13-1.81-1.4c-0.72-0.27-1.74-0.4-3.06-0.4H35.5
				v8.25c2.58,0,4.47-0.38,5.68-1.13c1.21-0.76,1.81-1.94,1.81-3.56c0-1.81-0.54-3.13-1.61-3.95c-1.07-0.82-2.8-1.23-5.19-1.23
				C35.57,204.23,34.82,204.25,33.94,204.3z"/>
			<path class="st1" d="M61.1,202.04c3.17,0,5.7,1.2,7.59,3.6c1.9,2.4,2.84,5.6,2.84,9.62c0,3.79-0.94,6.81-2.8,9.07
				c-1.87,2.25-4.38,3.38-7.53,3.38c-2.49,0-4.7-0.79-6.64-2.38c-2.85-2.35-4.28-5.82-4.28-10.42c0-3.93,0.98-7.06,2.93-9.38
				C55.16,203.2,57.79,202.04,61.1,202.04z M61.1,203.72c-4.4,0-6.61,3.87-6.61,11.61c0,7.15,2.17,10.73,6.51,10.73
				c2.02,0,3.56-0.95,4.61-2.84c1.06-1.9,1.58-4.67,1.58-8.32c0-4.13-0.51-7.01-1.52-8.64C64.61,204.57,63.08,203.72,61.1,203.72z
				 M67.34,203.04c1.86,0.9,3.34,2.44,4.42,4.61c1.08,2.18,1.62,4.69,1.62,7.54c0,4.2-1.07,7.58-3.2,10.16
				c-2.13,2.58-4.93,3.87-8.39,3.87c-2.21,0-4.29-0.75-6.21-2.25v-0.1c1.61,1.19,3.64,1.78,6.08,1.78c3.27,0,5.95-1.23,8.05-3.69
				c2.1-2.46,3.15-5.61,3.15-9.44c0-2.85-0.48-5.35-1.44-7.48c-0.96-2.14-2.32-3.73-4.07-4.79V203.04z M65.29,206.65l-0.33-0.19
				c-1.25-0.69-2.4-1.04-3.44-1.04c-3.43,0-5.14,3.37-5.14,10.1c0,4.92,1.06,8.19,3.18,9.79l-0.18,0.19
				c-1.3-0.92-2.23-2.14-2.78-3.64c-0.55-1.51-0.83-3.54-0.83-6.11c0-7.23,1.9-10.85,5.71-10.85
				C63.21,204.91,64.48,205.49,65.29,206.65z"/>
			<path class="st1" d="M75.12,202.29h9.34l-2.76,2.68v20.89h0.16l0.7,0.06h0.18v-20.75l2.11-2.13l0.27,0.43l-1.9,1.93v20.52
				c0.59,0.05,1.15,0.08,1.68,0.08c2.07,0,3.64-0.46,4.7-1.38c1.06-0.92,1.77-2.43,2.14-4.54c1.22,3.56,2.48,5.99,3.77,7.29h-20.4
				l2.7-2.21v-20.38L75.12,202.29z M97.43,227.21l-0.88,1.76h-20.4l-0.49-0.53h20.68l0.57-1.23c-1.43-1.76-2.58-3.72-3.44-5.88
				l-0.08-0.22l0.63,0.23l0.14,0.33c0.87,1.93,1.92,3.71,3.13,5.34L97.43,227.21z"/>
			<path class="st1" d="M97.02,202.29h9.34l-2.76,2.68v20.89h0.16l0.7,0.06h0.18v-20.75l2.11-2.13l0.27,0.43l-1.89,1.93v20.52
				c0.59,0.05,1.15,0.08,1.68,0.08c2.07,0,3.64-0.46,4.7-1.38c1.06-0.92,1.78-2.43,2.14-4.54c1.22,3.56,2.48,5.99,3.77,7.29h-20.4
				l2.7-2.21v-20.38L97.02,202.29z M119.34,227.21l-0.88,1.76h-20.4l-0.49-0.53h20.68l0.57-1.23c-1.43-1.76-2.58-3.72-3.44-5.88
				l-0.08-0.22l0.63,0.23l0.14,0.33c0.87,1.93,1.92,3.71,3.13,5.34L119.34,227.21z"/>
			<path class="st1" d="M129.9,202.04c3.17,0,5.7,1.2,7.59,3.6c1.9,2.4,2.84,5.6,2.84,9.62c0,3.79-0.94,6.81-2.8,9.07
				c-1.87,2.25-4.38,3.38-7.53,3.38c-2.49,0-4.7-0.79-6.64-2.38c-2.85-2.35-4.28-5.82-4.28-10.42c0-3.93,0.98-7.06,2.93-9.38
				C123.95,203.2,126.59,202.04,129.9,202.04z M129.9,203.72c-4.4,0-6.61,3.87-6.61,11.61c0,7.15,2.17,10.73,6.51,10.73
				c2.02,0,3.56-0.95,4.61-2.84c1.06-1.9,1.58-4.67,1.58-8.32c0-4.13-0.51-7.01-1.52-8.64C133.4,204.57,131.88,203.72,129.9,203.72z
				 M136.13,203.04c1.86,0.9,3.34,2.44,4.42,4.61c1.08,2.18,1.62,4.69,1.62,7.54c0,4.2-1.07,7.58-3.2,10.16s-4.93,3.87-8.39,3.87
				c-2.21,0-4.29-0.75-6.21-2.25v-0.1c1.61,1.19,3.64,1.78,6.08,1.78c3.27,0,5.95-1.23,8.05-3.69c2.1-2.46,3.15-5.61,3.15-9.44
				c0-2.85-0.48-5.35-1.44-7.48c-0.96-2.14-2.32-3.73-4.07-4.79V203.04z M134.08,206.65l-0.33-0.19c-1.25-0.69-2.4-1.04-3.44-1.04
				c-3.43,0-5.14,3.37-5.14,10.1c0,4.92,1.06,8.19,3.18,9.79l-0.18,0.19c-1.3-0.92-2.23-2.14-2.78-3.64
				c-0.55-1.51-0.83-3.54-0.83-6.11c0-7.23,1.9-10.85,5.71-10.85C132,204.91,133.27,205.49,134.08,206.65z"/>
			<path class="st1" d="M172.01,202.29l-2.03,2.31l3.21,8.52l0.78-0.43l-2.89-7.7l2.07-2.38l0.51,0.22l-1.97,2.29l2.74,7.29
				c0.16-0.12,0.25-0.19,0.27-0.22l0.65-0.55c0.39-0.31,0.64-0.53,0.74-0.66c0.34,1.48,0.86,2.81,1.56,3.99
				c-0.38-0.03-0.65-0.04-0.82-0.04c-1.24,0-2.14,0.2-2.72,0.59l3.54,9.59l2.93,2.27h-9.87l2.7-2.27l-2.17-5.71
				c-1.43,1.45-2.53,2.82-3.3,4.12l-0.45-0.12c0.77-1.28,1.92-2.7,3.44-4.28l0.16-0.2l-0.37-0.86c-1.55,1.29-2.83,2.79-3.85,4.49
				l-0.35-0.57c-0.68-1.08-1.54-2.31-2.6-3.69l-0.2-0.23c-1,2.23-1.51,4.04-1.51,5.43c0,0.82,0.14,1.51,0.42,2.08
				s0.95,1.51,2.02,2.84c0.09,0.12,0.23,0.3,0.43,0.55h-10.55l-0.39-0.53h9.95l-0.33-0.41c-0.86-1.04-1.42-1.85-1.69-2.43
				c-0.27-0.58-0.4-1.26-0.4-2.04c0-1.33,0.54-3.31,1.62-5.94l-0.86-0.9c-0.17,0.42-0.38,1.03-0.64,1.84l-0.65,1.99
				c-0.35,1.07-0.53,1.95-0.53,2.66c0,0.73,0.12,1.34,0.37,1.82c0.25,0.48,0.77,1.14,1.56,1.97c0.08,0.08,0.2,0.2,0.35,0.37h-9.77
				c1.86-0.97,3.34-2.26,4.43-3.89c1.09-1.63,2.17-4.14,3.23-7.54l0.08-0.27c-0.69-0.59-1.69-0.94-2.99-1.07
				c0.72-1.07,1.27-2.18,1.66-3.34c0.18,0.17,0.29,0.27,0.33,0.31l0.88,0.82c0.3,0.29,0.66,0.58,1.07,0.88l0.35-0.86l-0.24-0.19
				c-0.65-0.57-1.2-1.04-1.64-1.39l-0.18-0.14l0.31-0.43c0.69,0.46,1.35,0.98,1.99,1.58l2.66-7.31l-2.07-2.23H172.01z M166.3,206.3
				l-3.11,8.21c0.99,1.02,1.84,2.02,2.56,3.01l0.9,1.25c0.01,0.01,0.08,0.1,0.19,0.25c0.12-0.12,0.18-0.19,0.2-0.22l0.27-0.33
				c0.04-0.05,0.11-0.14,0.22-0.25c-0.91-1.41-1.97-2.68-3.18-3.81l2.5-6.61L166.3,206.3z M167.18,208.57l-2.15,5.67
				c0.12,0.13,0.18,0.21,0.19,0.23l0.8,0.9c0.43,0.47,0.98,1.2,1.64,2.19l0.19,0.29c0.56-0.7,1.22-1.4,1.99-2.09L167.18,208.57z
				 M177.8,211.91c0.29,1.17,1,2.78,2.15,4.83c-0.29-0.04-0.45-0.06-0.49-0.06l-1.58-0.14c-0.72-0.06-1.24-0.1-1.56-0.1
				c-0.05,0-0.18,0.01-0.39,0.02l3.26,8.66l4.36,3.85h-11.32l-0.37-0.53h10.38l-3.52-3.11l-3.48-9.2c0.44-0.12,0.95-0.18,1.52-0.18
				c0.7,0,1.49,0.06,2.35,0.18l-0.23-0.43c-0.83-1.54-1.39-2.92-1.68-4.16L177.8,211.91z"/>
			<path class="st1" d="M194.21,202.29h9.34l-2.76,2.68v20.89h0.16l0.7,0.06h0.18v-20.75l2.11-2.13l0.27,0.43l-1.89,1.93v20.52
				c0.59,0.05,1.15,0.08,1.68,0.08c2.07,0,3.64-0.46,4.7-1.38c1.06-0.92,1.78-2.43,2.14-4.54c1.22,3.56,2.48,5.99,3.77,7.29h-20.4
				l2.7-2.21v-20.38L194.21,202.29z M216.53,227.21l-0.88,1.76h-20.4l-0.49-0.53h20.68l0.57-1.23c-1.43-1.76-2.58-3.72-3.44-5.88
				l-0.08-0.22l0.63,0.23l0.14,0.33c0.87,1.93,1.92,3.71,3.13,5.34L216.53,227.21z"/>
			<path class="st1" d="M234.22,202.29l-2.03,2.31l3.21,8.52l0.78-0.43l-2.89-7.7l2.07-2.38l0.51,0.22l-1.97,2.29l2.74,7.29
				c0.16-0.12,0.25-0.19,0.27-0.22l0.65-0.55c0.39-0.31,0.64-0.53,0.74-0.66c0.34,1.48,0.86,2.81,1.56,3.99
				c-0.38-0.03-0.65-0.04-0.82-0.04c-1.24,0-2.14,0.2-2.72,0.59l3.54,9.59l2.93,2.27h-9.87l2.7-2.27l-2.17-5.71
				c-1.43,1.45-2.53,2.82-3.3,4.12l-0.45-0.12c0.77-1.28,1.92-2.7,3.44-4.28l0.16-0.2l-0.37-0.86c-1.55,1.29-2.83,2.79-3.85,4.49
				l-0.35-0.57c-0.68-1.08-1.54-2.31-2.6-3.69l-0.2-0.23c-1,2.23-1.51,4.04-1.51,5.43c0,0.82,0.14,1.51,0.42,2.08
				s0.95,1.51,2.02,2.84c0.09,0.12,0.23,0.3,0.43,0.55h-10.55l-0.39-0.53h9.95l-0.33-0.41c-0.86-1.04-1.42-1.85-1.69-2.43
				c-0.27-0.58-0.4-1.26-0.4-2.04c0-1.33,0.54-3.31,1.62-5.94l-0.86-0.9c-0.17,0.42-0.38,1.03-0.64,1.84l-0.65,1.99
				c-0.35,1.07-0.53,1.95-0.53,2.66c0,0.73,0.12,1.34,0.37,1.82c0.25,0.48,0.77,1.14,1.56,1.97c0.08,0.08,0.2,0.2,0.35,0.37h-9.77
				c1.86-0.97,3.34-2.26,4.43-3.89c1.09-1.63,2.17-4.14,3.23-7.54l0.08-0.27c-0.69-0.59-1.69-0.94-2.99-1.07
				c0.72-1.07,1.27-2.18,1.66-3.34c0.18,0.17,0.29,0.27,0.33,0.31l0.88,0.82c0.3,0.29,0.66,0.58,1.07,0.88l0.35-0.86l-0.24-0.19
				c-0.65-0.57-1.2-1.04-1.64-1.39l-0.18-0.14l0.31-0.43c0.69,0.46,1.35,0.98,1.99,1.58l2.66-7.31l-2.07-2.23H234.22z M228.51,206.3
				l-3.11,8.21c0.99,1.02,1.84,2.02,2.56,3.01l0.9,1.25c0.01,0.01,0.08,0.1,0.19,0.25c0.12-0.12,0.18-0.19,0.2-0.22l0.27-0.33
				c0.04-0.05,0.11-0.14,0.22-0.25c-0.91-1.41-1.97-2.68-3.18-3.81l2.5-6.61L228.51,206.3z M229.39,208.57l-2.15,5.67
				c0.12,0.13,0.18,0.21,0.19,0.23l0.8,0.9c0.43,0.47,0.98,1.2,1.64,2.19l0.19,0.29c0.56-0.7,1.22-1.4,1.99-2.09L229.39,208.57z
				 M240,211.91c0.29,1.17,1,2.78,2.15,4.83c-0.29-0.04-0.45-0.06-0.49-0.06l-1.58-0.14c-0.72-0.06-1.24-0.1-1.56-0.1
				c-0.05,0-0.18,0.01-0.39,0.02l3.26,8.66l4.36,3.85h-11.32l-0.37-0.53h10.38l-3.52-3.11l-3.48-9.2c0.44-0.12,0.95-0.18,1.53-0.18
				c0.7,0,1.48,0.06,2.34,0.18l-0.23-0.43c-0.83-1.54-1.39-2.92-1.68-4.16L240,211.91z"/>
			<path class="st1" d="M256.42,202.29h9.34l-2.76,2.68v20.89h0.16l0.7,0.06h0.18v-20.75l2.11-2.13l0.27,0.43l-1.9,1.93v20.52
				c0.59,0.05,1.15,0.08,1.68,0.08c2.07,0,3.64-0.46,4.7-1.38c1.06-0.92,1.77-2.43,2.14-4.54c1.22,3.56,2.48,5.99,3.77,7.29h-20.4
				l2.7-2.21v-20.38L256.42,202.29z M278.74,227.21l-0.88,1.76h-20.4l-0.49-0.53h20.68l0.57-1.23c-1.43-1.76-2.58-3.72-3.44-5.88
				l-0.08-0.22l0.63,0.23l0.14,0.33c0.87,1.93,1.92,3.71,3.13,5.34L278.74,227.21z"/>
			<path class="st1" d="M299.51,202.29l-0.31,0.37c-1.33,1.63-2.38,3.5-3.17,5.61c-0.13-0.3-0.23-0.52-0.29-0.66
				c-0.72-1.56-1.49-2.57-2.31-3.03c-0.82-0.46-2.29-0.68-4.42-0.68c-0.98,0-2.15,0.03-3.52,0.1v8.99h1.25v-7.95
				c0.99-0.09,1.93-0.14,2.83-0.14c1.66,0,2.87,0.18,3.65,0.53c0.78,0.35,1.48,1.04,2.09,2.05c-0.18-0.13-0.31-0.23-0.39-0.29
				c-1.06-0.83-1.82-1.33-2.29-1.49c-0.47-0.16-1.39-0.23-2.77-0.23c-0.42,0-1.16,0.03-2.23,0.08l-0.41,0.02v7.43h3.6l2.52-3.46
				v8.42l-2.52-3.26h-5.34v10.96h1.25V215.6h4.24l0.51,0.51h-4.26v9.54c2.66,0,4.55-0.19,5.67-0.57c1.12-0.38,2-1.12,2.64-2.23
				l1.04-1.78c0.04-0.08,0.12-0.22,0.23-0.43c0.34,1.43,0.76,2.58,1.26,3.44c0.5,0.86,1.33,1.86,2.49,3.01h-21.91l2.97-2.27v-8.72
				c-1.09,0.13-2.08,0.47-2.97,1.02l-0.27-0.41c0.79-0.57,1.88-0.94,3.24-1.11v-0.92c-0.22-0.03-0.38-0.04-0.47-0.04
				c-1.33,0-2.54,0.49-3.64,1.47c0.6-2.08,1.97-3.13,4.1-3.13v-8.35l-2.97-2.34H299.51z M302.79,227.21l-1.02,1.76h-21.34
				l-0.31-0.53h21.4l0.66-1.23c-1.88-1.73-3.2-3.58-3.97-5.55l0.63,0.23c0.72,1.67,1.93,3.34,3.64,5L302.79,227.21z M294.7,210.17
				v8.64l-0.49-0.25v-8.64L294.7,210.17z M300.45,203.66l-0.14,0.18c-1.59,2.14-2.65,3.93-3.18,5.37l-0.33-0.41
				c0.87-2.02,2-3.87,3.38-5.55L300.45,203.66z"/>
			<path class="st1" d="M325.5,202.29c-1.49,0.77-2.44,1.47-2.87,2.11c-0.65,0.99-0.98,2.48-0.98,4.48v1.27v17.22h-3.3l-9.22-17.9
				v10.61l-0.02,0.88l0.23,2.81c0.26,1.3,0.85,2.27,1.78,2.89l0.16,0.14c-1.8-0.6-2.7-2.52-2.7-5.76l0.02-1.84v-10.69l-1.06-2.05
				v11.26c0,3.57,0.24,5.91,0.7,7.02c0.47,1.11,1.57,1.92,3.3,2.42l1.7,1.82h-10.59l-0.31-0.53h9.79l-1.02-1.07h-9.11
				c1.59-0.57,2.64-1.34,3.17-2.31c0.52-0.97,0.78-2.62,0.78-4.96v-15.63l-2.6-2.17h9.89l-2.77,1.86l9.46,18.45v-2.35l-8.11-15.79
				l2.74-1.86l0.37,0.37l-2.42,1.64l7.43,14.58v-9.13v-1.04c0-2.27-0.19-3.78-0.56-4.54c-0.37-0.76-1.29-1.5-2.75-2.2H325.5z
				 M319.34,194.53c0.03,0.25,0.04,0.42,0.04,0.51c0,0.94-0.3,1.74-0.89,2.39c-0.59,0.66-1.31,0.99-2.14,0.99
				c-0.93,0-2.14-0.38-3.65-1.13c-0.87-0.44-1.49-0.66-1.86-0.66c-0.86,0-1.35,0.51-1.48,1.52h-1.39c0-1.12,0.34-2.06,1.03-2.81
				c0.68-0.76,1.53-1.13,2.53-1.13c0.85,0,2.08,0.48,3.69,1.43c0.63,0.38,1.12,0.57,1.48,0.57c0.35,0,0.65-0.13,0.88-0.4
				c0.23-0.27,0.35-0.59,0.35-0.97c0-0.08-0.01-0.18-0.02-0.29H319.34z M310.98,197.56v0.59c-0.27,0.38-0.46,0.86-0.57,1.45h-1.56
				l-0.31-0.45h1.54C310.22,198.42,310.52,197.89,310.98,197.56z M320.44,195.08l0.41,0.35c0,1.19-0.35,2.18-1.04,2.99
				c-0.69,0.81-1.54,1.21-2.54,1.21c-0.65,0-1.39-0.19-2.23-0.59l0.25-0.25c0.73,0.27,1.35,0.41,1.88,0.41
				c1.93,0,3.01-1.3,3.24-3.89L320.44,195.08z M326.19,203.74l-0.35,0.59c-1,0.23-1.68,0.67-2.04,1.3c-0.36,0.63-0.54,1.7-0.54,3.2
				v20.15h-4.2l-0.25-0.53h3.93v-19.43c0-1.84,0.24-3.12,0.71-3.84C323.91,204.45,324.83,203.97,326.19,203.74z"/>
			<path class="st1" d="M345.34,202.29l-2.03,2.31l3.21,8.52l0.78-0.43l-2.89-7.7l2.07-2.38l0.51,0.22l-1.97,2.29l2.74,7.29
				c0.16-0.12,0.25-0.19,0.27-0.22l0.64-0.55c0.39-0.31,0.64-0.53,0.74-0.66c0.34,1.48,0.86,2.81,1.56,3.99
				c-0.38-0.03-0.65-0.04-0.82-0.04c-1.24,0-2.14,0.2-2.72,0.59l3.54,9.59l2.93,2.27h-9.87l2.7-2.27l-2.17-5.71
				c-1.43,1.45-2.53,2.82-3.3,4.12l-0.45-0.12c0.77-1.28,1.92-2.7,3.44-4.28l0.16-0.2l-0.37-0.86c-1.55,1.29-2.83,2.79-3.85,4.49
				l-0.35-0.57c-0.68-1.08-1.54-2.31-2.6-3.69l-0.2-0.23c-1,2.23-1.5,4.04-1.5,5.43c0,0.82,0.14,1.51,0.42,2.08
				c0.28,0.57,0.95,1.51,2.02,2.84c0.09,0.12,0.23,0.3,0.43,0.55h-10.55l-0.39-0.53h9.95l-0.33-0.41c-0.86-1.04-1.42-1.85-1.69-2.43
				c-0.27-0.58-0.4-1.26-0.4-2.04c0-1.33,0.54-3.31,1.62-5.94l-0.86-0.9c-0.17,0.42-0.38,1.03-0.64,1.84l-0.65,1.99
				c-0.35,1.07-0.53,1.95-0.53,2.66c0,0.73,0.12,1.34,0.37,1.82c0.25,0.48,0.77,1.14,1.56,1.97c0.08,0.08,0.2,0.2,0.35,0.37h-9.77
				c1.86-0.97,3.34-2.26,4.43-3.89c1.09-1.63,2.17-4.14,3.23-7.54l0.08-0.27c-0.69-0.59-1.69-0.94-2.99-1.07
				c0.72-1.07,1.27-2.18,1.66-3.34c0.18,0.17,0.29,0.27,0.33,0.31l0.88,0.82c0.3,0.29,0.66,0.58,1.07,0.88l0.35-0.86l-0.23-0.19
				c-0.65-0.57-1.2-1.04-1.64-1.39l-0.18-0.14l0.31-0.43c0.69,0.46,1.35,0.98,1.99,1.58l2.66-7.31l-2.07-2.23H345.34z M339.63,206.3
				l-3.11,8.21c0.99,1.02,1.84,2.02,2.56,3.01l0.9,1.25c0.01,0.01,0.08,0.1,0.19,0.25c0.12-0.12,0.18-0.19,0.2-0.22l0.27-0.33
				c0.04-0.05,0.11-0.14,0.21-0.25c-0.91-1.41-1.97-2.68-3.18-3.81l2.5-6.61L339.63,206.3z M340.51,208.57l-2.15,5.67
				c0.12,0.13,0.18,0.21,0.19,0.23l0.8,0.9c0.43,0.47,0.98,1.2,1.64,2.19l0.19,0.29c0.56-0.7,1.22-1.4,1.99-2.09L340.51,208.57z
				 M351.12,211.91c0.29,1.17,1,2.78,2.15,4.83c-0.29-0.04-0.45-0.06-0.49-0.06l-1.58-0.14c-0.72-0.06-1.24-0.1-1.56-0.1
				c-0.05,0-0.18,0.01-0.39,0.02l3.26,8.66l4.36,3.85h-11.32l-0.37-0.53h10.38l-3.52-3.11l-3.48-9.2c0.44-0.12,0.95-0.18,1.52-0.18
				c0.7,0,1.49,0.06,2.35,0.18l-0.23-0.43c-0.83-1.54-1.39-2.92-1.68-4.16L351.12,211.91z"/>
		</g>
		<g>
			<path class="st1" d="M168.64,251.26l-4.28,4.35v32.11l3.85,3.66h-14.38l4.35-3.66v-21.04l-9.91,27.27h-3L145,293.1h2.72
				l10.44-29.08v-4.78l-11.63,32.11h-2.19l-8.57-25.23v16.54c0,2.21,0.14,3.77,0.44,4.69c0.29,0.92,0.98,1.93,2.06,3.03l2.81,3.57
				h-16.35l-0.56-0.84h15.35l-1.16-1.72h-13.95l0.66-0.34c2.31-1.27,3.84-2.56,4.58-3.86c0.74-1.3,1.11-3.36,1.11-6.17v-25.86
				l-4.13-3.88h16.17l-4.53,4.1l8.85,26.17l1.13-2.72l-8-23.2l4.1-3.03l0.66,0.53l-3.91,2.75l7.44,21.8l8.07-22.29l-3.82-4.1H168.64
				z M133.24,258.67v22.45c0,3.44,0.33,5.81,0.99,7.1c0.66,1.29,2.02,2.23,4.08,2.81l-0.28-0.47c-2.04-1.42-3.06-3.46-3.06-6.13
				v-2.31v-18.48L133.24,258.67z M170.39,253.7l-3.53,2.53v31.52l5.44,6.19h-16.6l-0.44-0.84h15.13l-4.35-4.91V255.7l3.69-2.53
				L170.39,253.7z"/>
			<path class="st1" d="M189.62,264.93c-0.56-2.04-0.84-3.96-0.84-5.75c0-2.79,0.7-5.03,2.1-6.72c1.4-1.69,3.24-2.53,5.53-2.53
				c2.13,0,3.93,0.7,5.42,2.1s2.24,3.08,2.24,5.03c0,4-2.85,6.9-8.54,8.69c2.21,5.65,4.53,10.24,6.97,13.76
				c0.33-0.69,0.59-1.47,0.78-2.35c-2.17-3.31-3.95-6.72-5.35-10.23l0.44-0.19c4.98-2.02,7.47-5.06,7.47-9.13c0-1.46-0.5-3-1.5-4.63
				l-0.25-0.41c1.67,1.46,2.5,3.29,2.5,5.5c0,3.96-2.52,7.1-7.57,9.41c1.46,3.46,2.93,6.33,4.41,8.6c0.08-1,0.13-1.99,0.13-2.97
				c0-1.54-0.09-2.81-0.28-3.82l0.31,0.19c2.79,2.15,5.43,3.67,7.91,4.57c-2.5,2.52-4.74,5.53-6.72,9.04
				c2.44,3.44,4.8,5.16,7.1,5.16c0.9,0,1.66-0.26,2.28-0.78l0.56-0.5c0.29-0.23,0.56-0.34,0.81-0.34c0.71,0,1.06,0.29,1.06,0.88
				c0,0.88-0.69,1.75-2.06,2.61c-1.38,0.86-2.74,1.3-4.1,1.3c-2.11,0-4.38-0.78-6.82-2.35c-2.98,3.23-6.8,4.85-11.44,4.85
				c-4.31,0-8-1.4-11.07-4.19l0.19-0.28c3.36,2.42,6.98,3.63,10.88,3.63c4.36,0,7.92-1.51,10.69-4.53c-0.42-0.29-0.8-0.59-1.16-0.91
				c-3.02,2.33-6.44,3.5-10.26,3.5c-4.44,0-8.07-1.2-10.9-3.61c-2.82-2.41-4.24-5.5-4.24-9.27c0-3.21,1.01-5.86,3.03-7.94
				c2.02-2.08,5.25-3.82,9.69-5.22L189.62,264.93z M191.28,269.96c-3.75,2.08-5.63,5.1-5.63,9.04c0,2.15,0.54,3.98,1.63,5.49
				s2.62,2.57,4.6,3.17v0.41c-2.09-0.29-3.78-1.25-5.08-2.88c-1.3-1.63-1.95-3.59-1.95-5.88c0-4.34,2.03-7.72,6.1-10.16l-0.16-0.41
				c-0.15-0.35-0.28-0.71-0.41-1.06c-2.4,0.96-4.26,2.44-5.6,4.44c-1.33,2-2,4.29-2,6.88c0,2.75,0.84,5.04,2.53,6.88
				c1.69,1.84,3.8,2.75,6.35,2.75c2.83,0,5.41-1.23,7.72-3.69C196.67,281.23,193.97,276.24,191.28,269.96z M197.06,262.3
				c2.25-1.17,3.38-2.96,3.38-5.38c0-1.31-0.39-2.41-1.17-3.28s-1.76-1.31-2.92-1.31c-2.33,0-3.5,1.37-3.5,4.1
				c0,2.17,0.61,4.48,1.84,6.94c0.14-0.08,0.25-0.14,0.31-0.16l0.81-0.31c0.06-0.02,0.21-0.08,0.44-0.19
				c-1.02-2.42-1.53-4.34-1.53-5.75c0-2.08,0.83-3.13,2.5-3.13c0.67,0,1.38,0.34,2.13,1.03l-0.22,0.31l-0.25-0.16
				c-0.56-0.33-1.08-0.5-1.56-0.5c-1.29,0-1.94,0.86-1.94,2.56C195.37,258.56,195.94,260.3,197.06,262.3z M213.14,276.28
				c-2.38,2.48-4.03,4.64-4.97,6.47l-0.09,0.25l0.25,0.28c1.77,2.04,3.4,3.06,4.88,3.06c0.31,0,0.69-0.06,1.13-0.19v0.25
				c-0.54,0.31-1.1,0.47-1.69,0.47c-1.94,0-3.71-1.29-5.32-3.88c1.52-2.81,3.26-5.21,5.22-7.19L213.14,276.28z M218.73,289.13
				c-0.44,1.33-1.28,2.46-2.52,3.38c-1.24,0.92-2.55,1.38-3.92,1.38c-1.94,0-3.6-0.58-4.97-1.75v-0.25
				c1.38,0.81,2.79,1.22,4.25,1.22c2.63,0,4.71-1.34,6.25-4.03l0.12-0.22L218.73,289.13z"/>
			<path class="st1" d="M226.17,255.01c4.94-2.86,10.26-4.28,15.95-4.28c4.42,0,8.06,0.96,10.93,2.88c2.87,1.92,4.3,4.36,4.3,7.32
				c0,2.42-0.94,4.56-2.81,6.43c-1.88,1.87-4.44,3.22-7.69,4.05c1.44,3.96,3.39,7.82,5.86,11.57s4.95,6.63,7.43,8.63l-0.47,0.16
				c-3.11,1.06-6.15,2.56-9.13,4.5l-0.47,0.31l-0.16-1c-1.33-8.07-3.2-14.9-5.6-20.51l-0.13-0.31c-1.44,0.67-3.37,1.2-5.78,1.6
				l-0.25,0.03v11.69l5.5,5.88h-16.17l-0.5-0.84h14.88l-4.53-4.81v-12.6l0.66-0.09c2.38-0.25,4.37-0.72,5.97-1.41
				c-0.13-0.25-0.2-0.41-0.22-0.47l-0.31-0.91c-0.02-0.06-0.07-0.19-0.16-0.37c-1.29,0.37-3.73,0.78-7.32,1.22l-0.34,0.06v13.95
				l3.56,3.72h-13.82l4.06-3.72v-10.51l-0.25,0.03c-1.21,0.27-2.3,0.57-3.28,0.91l-0.25,0.09l-0.28-0.63
				c0.92-0.35,1.64-0.59,2.16-0.72l1.66-0.41l0.25-0.06v-1.63c-1.23,0-2.76,0.27-4.6,0.81l-0.34,0.12c0.04-0.29,0.25-0.97,0.63-2.03
				c0.04-0.08,0.19-0.55,0.44-1.41c0.02-0.06,0.05-0.16,0.09-0.28c0.94,0.06,1.67,0.09,2.19,0.09c0.56,0,1.08-0.03,1.56-0.09v-15.38
				c-0.96-0.58-1.95-1.07-2.97-1.47L226.17,255.01z M235.62,254.2v16.85c0.6,0,1.18-0.05,1.72-0.16v-15.39
				c1.15-0.31,2.52-0.47,4.13-0.47c4.07,0,6.83,1.33,8.29,4c-1.54-1.25-2.9-2.11-4.07-2.58c-1.17-0.47-2.56-0.7-4.19-0.7
				c-1.27,0-2.39,0.13-3.35,0.38v14.76l0.34-0.06c4.11-0.75,7.16-1.93,9.15-3.55c1.99-1.61,2.99-3.72,2.99-6.3
				c0-2.31-0.9-4.23-2.69-5.74s-4.06-2.27-6.79-2.27C238.96,252.98,237.12,253.39,235.62,254.2z M250.72,272.96
				c1.31,4.29,3.64,8.49,6.97,12.6c2.08,2.56,4.72,4.87,7.91,6.91c-4.77,1.27-9.26,3.21-13.45,5.82l-0.28,0.19l-0.63-0.5
				c3.98-2.61,8.22-4.52,12.73-5.75c-6-4-10.73-10.4-14.17-19.2l-0.19-0.53c6.38-2.42,9.57-6.11,9.57-11.07
				c0-2.04-0.82-4.27-2.47-6.69c2.11,1.92,3.16,4.36,3.16,7.32C259.88,266.84,256.83,270.48,250.72,272.96z"/>
		</g>
	</g>
	<g>
		<defs>
			<polygon id="SVGID_9_" points="1107.8,1061.19 -322.69,1061.19 -646.3,52.97 1197.7,52.97 1197.7,1060.77 			"/>
		</defs>
		<clipPath id="SVGID_1_">
			<use xlink:href="#SVGID_9_"  style="display:none;overflow:visible;"/>
		</clipPath>
	</g>
</g>
<g id="Capa_2">
</g>
</svg>
