<svg width="300" style="background: transparent" height="115" xmlns="http://www.w3.org/2000/svg" xml:space="preserve" version="1.1">
  <g>
    <title>Layer 1</title>
    <rect id="svg_1" display="none" height="500" width="499" class="st0" y="0.5" x="0.5" />
    <g id="svg_2">
      <polygon id="svg_3" fill="#FFFFFF" points="233.489990234375,10.330001831054688 226.05999755859375,24.779998779296875 200.1199951171875,75.01998901367188 190.739990234375,93.14999389648438 181.3699951171875,111.30999755859375 175.1400146484375,91.89999389648438 153.6199951171875,24.779998779296875 148.99000549316406,10.330001831054688 164.17001342773438,10.330001831054688 168.79998779296875,24.779998779296875 184.51998901367188,73.75 193.8900146484375,55.589996337890625 209.79998779296875,24.779998779296875 217.239990234375,10.330001831054688 " class="st4" />
      <polygon id="svg_4" fill="#FFFFFF" points="97.60000610351562,102.95999145507812 82.39999389648438,102.95999145507812 77.75,88.51998901367188 62.07000732421875,39.589996337890625 62.03999328613281,39.6300048828125 52.69000244140625,57.720001220703125 52.61000061035156,57.8699951171875 36.82000732421875,88.51998901367188 36.83000183105469,88.51998901367188 29.37999725341797,102.95999145507812 13.099998474121094,102.95999145507812 20.529998779296875,88.51998901367188 46.38999938964844,38.470001220703125 46.470001220703125,38.279998779296875 55.82000732421875,20.220001220703125 55.82000732421875,20.199996948242188 55.839996337890625,20.149993896484375 65.19000244140625,2 65.24000549316406,2.1399993896484375 67.89999389648438,10.419998168945312 69.44000244140625,15.240005493164062 69.44000244140625,15.25 69.44999694824219,15.25 71.35000610351562,21.17999267578125 71.35000610351562,21.19000244140625 71.44000244140625,21.44000244140625 71.44000244140625,21.460006713867188 71.77999877929688,22.5 71.77999877929688,22.509994506835938 74.10000610351562,29.720001220703125 76.41999816894531,36.94999694824219 76.41999816894531,36.96000671386719 81.05999755859375,51.41999816894531 81.07000732421875,51.42999267578125 83.38999938964844,58.67999267578125 85.71000671386719,65.89999389648438 85.71000671386719,65.91999816894531 87.30000305175781,70.86000061035156 88.02999877929688,73.14999389648438 88.03999328613281,73.16999816894531 90.36000061035156,80.39999389648438 92.69000244140625,87.6400146484375 92.97000122070312,88.51998901367188 95.00999450683594,94.8699951171875 97.33000183105469,102.1199951171875 " class="st4" />
      <polygon id="svg_5" fill="#FFFFFF" points="286.3900146484375,102.95999145507812 271.20001220703125,102.95999145507812 266.5400085449219,88.51998901367188 250.8599853515625,39.589996337890625 241.48001098632812,57.720001220703125 241.45001220703125,57.77000427246094 225.6099853515625,88.51998901367188 225.6199951171875,88.51998901367188 218.17001342773438,102.95999145507812 201.8900146484375,102.95999145507812 209.32998657226562,88.51998901367188 235.20999145507812,38.3699951171875 235.260009765625,38.279998779296875 244.6300048828125,20.149993896484375 244.67001342773438,20.089996337890625 244.67001342773438,20.080001831054688 253.95001220703125,2.0500030517578125 253.98001098632812,2 260.2300109863281,21.44000244140625 281.760009765625,88.51998901367188 " class="st4" />
      <polygon id="svg_6" fill="#FFFFFF" points="165.20001220703125,102.95999145507812 109.39999389648438,102.95999145507812 111.17999267578125,88.5 120.8699951171875,10.330001831054688 135.42999267578125,10.330001831054688 125.75,88.5 160.72000122070312,88.51998901367188 " class="st4" />
    </g>
  </g>
</svg>