<svg width="150" height="100" xmlns="http://www.w3.org/2000/svg" xml:space="preserve" version="1.1">
 <g>
  <title>Layer 1</title>
  <path stroke="null" fill="#000000" opacity="undefined" d="m-4.5,-2.49999l-142.00001,0l0,500.99999l142.00001,0l0,-500.99999z" id="svg_1"/>
  <g id="svg_2">
   <path id="svg_3" fill="#FFFFFF" d="m23.54,83.5l14.73,-4.73l14.49,-4.64l0.24,-0.08l14.73,-4.73l4.9,-1.57l0.01,0l9.84,-3.16l9.94,-3.19l4.79,-1.54l15.17,-4.88l-15.17,-7.81l-3.47,-1.78l-11.27,-5.83l-6.73,-3.48l-0.62,-0.32l-7.39,-3.81l-11.44,-5.91l-0.01,0l-3.28,-1.69l-14.73,-7.6l-0.01,-0.01l-14.72,-7.59l-4.78,-2.46l-10.04,-5.18l0,86.75l14.82,-4.76zm0,-57.71l12.84,6.63l0,0l1.89,0.98l14.73,7.62l2.17,1.12l12.56,6.49l6.05,3.13l0.05,0.02l-6.1,1.96l-13.69,4.41l-1.04,0.33l-14.73,4.74l-4.1,1.31l-10.63,3.42l0,-42.16z" class="st3"/>
  </g>
 </g>

</svg>