<svg width="175" height="175" xmlns="http://www.w3.org/2000/svg" xml:space="preserve" version="1.1">
  <g>
    <title>Layer 1</title>
    <rect id="svg_1" display="none" height="500" width="499" class="st0" y="0.5" x="0.5" />
    <g id="svg_2">
      <path id="svg_3" fill="#ffffff" d="m82.54,82.6c10.43,-4.09 8.32,-16.1 8.32,-16.1c-1.59,-16.37 -19.67,-15.49 -19.67,-15.49l-34.19,0l0,68.38l34.5,0c7.74,0 12.5,-3.34 12.5,-3.34c10.12,-6.6 9.06,-16.98 9.06,-16.98c1.05,-13.04 -10.52,-16.47 -10.52,-16.47zm-29.7,-19.87l15.18,0c0,0 9.37,-0.46 9.37,7c0,0 0.99,8.18 -8.91,8.18l-15.64,0l0,-15.18zm16.37,45.04l-16.28,0l0,-18.57l15.93,0c0,0 9.94,-0.44 9.94,8.89c0,9.33 -9.15,9.24 -9.59,9.68z" class="st4" />
      <path id="svg_4" fill="#ffffff" d="m143.54,88.23c-3.45,-23.14 -24.18,-21.38 -24.18,-21.38c-25.87,0 -24.46,25.61 -24.46,25.61c-1.5,27.02 24.31,26.64 24.31,26.64c20.77,0 23.58,-16.04 23.58,-16.04l-13.2,0c-3.23,6.73 -10.38,5.54 -10.38,5.54c-11.3,0 -11.64,-12.28 -11.64,-12.28l35.97,0l0,-8.09zm-35.66,-0.55c0,0 1.37,-10.3 11.18,-10.3c0,0 10.84,0.18 10.84,10.59l-22.02,-0.29z" class="st4" />
      <rect id="svg_5" fill="#ffffff" height="6.69" width="27.76" class="st4" y="53.74" x="105.15" />
    </g>
  </g>
</svg>